<?xml version="1.0" standalone="no"?>
<!DOCTYPE svg PUBLIC "-//W3C//DTD SVG 20010904//EN"
 "http://www.w3.org/TR/2001/REC-SVG-20010904/DTD/svg10.dtd">
<svg version="1.0" xmlns="http://www.w3.org/2000/svg"
 width="439.000000pt" height="418.000000pt" viewBox="0 0 439.000000 418.000000"
 preserveAspectRatio="xMidYMid meet">

<g transform="translate(0.000000,418.000000) scale(0.100000,-0.100000)"
fill="#000000" stroke="none">
<path d="M1825 4084 c-203 -23 -344 -54 -500 -111 -368 -133 -699 -395 -918
-728 -126 -192 -236 -461 -267 -656 -19 -115 -9 -290 20 -362 72 -179 251
-256 565 -244 538 21 1359 342 2290 894 130 77 363 228 475 307 214 152 443
342 433 360 -3 6 -3 8 2 4 10 -10 47 21 169 140 109 108 110 94 2 -53 -36 -49
-66 -94 -66 -100 1 -5 16 -46 34 -90 53 -126 57 -121 137 150 37 127 68 240
68 253 1 31 -16 29 -197 -24 -86 -25 -191 -56 -232 -67 -105 -31 -103 -48 14
-96 50 -21 91 -42 93 -47 3 -10 -56 -51 -295 -206 l-156 -101 -25 34 c-43 56
-175 201 -227 249 -64 58 -144 124 -157 129 -5 2 -19 12 -31 22 -12 10 -55 40
-96 65 -252 155 -521 246 -815 274 -103 9 -252 11 -320 4z m490 -164 c142 -30
319 -92 433 -150 144 -75 162 -84 162 -91 0 -3 -53 -5 -117 -5 -132 1 -218
-20 -328 -77 -147 -78 -255 -246 -255 -397 0 -17 -14 -73 -31 -127 -41 -129
-39 -197 12 -303 20 -41 48 -88 63 -103 14 -15 26 -30 26 -33 0 -5 -157 -80
-245 -118 -16 -8 -61 -27 -100 -44 -225 -99 -418 -161 -466 -149 -39 10 -99
54 -194 144 -105 99 -177 149 -236 162 -107 25 -236 2 -333 -59 -53 -34 -216
-192 -216 -210 0 -6 -11 -27 -24 -48 -13 -20 -29 -58 -36 -84 -7 -27 -17 -48
-23 -48 -23 0 -79 48 -108 92 -82 126 -50 373 86 663 64 136 76 151 130 158
72 10 249 73 347 123 117 59 164 95 283 218 91 94 105 104 154 116 34 8 79 10
127 6 179 -16 231 60 140 208 -20 33 -36 67 -36 76 0 79 151 111 485 105 154
-3 223 -9 300 -25z m-915 -94 c0 -12 11 -44 25 -70 14 -26 25 -51 25 -55 0 -4
-45 -11 -99 -14 -150 -8 -204 -37 -311 -166 -60 -72 -161 -149 -252 -193 -72
-35 -199 -80 -206 -74 -7 7 102 137 170 202 134 129 253 215 408 296 196 102
240 115 240 74z m1567 -305 c97 -20 182 -54 245 -97 31 -22 138 -142 161 -180
6 -11 -131 -97 -373 -234 -135 -77 -344 -190 -481 -262 l-97 -51 -36 29 c-20
16 -50 55 -67 88 -29 53 -31 65 -26 125 2 36 14 93 25 127 12 33 26 98 31 144
17 134 80 219 209 281 106 52 252 62 409 30z m-1934 -1033 c64 -34 277 -231
260 -241 -29 -17 -320 -81 -442 -96 -96 -13 -301 -15 -301 -3 0 59 77 181 157
251 79 69 154 101 235 101 38 0 79 -5 91 -12z"/>
<path d="M3580 3018 c-80 -73 -304 -265 -379 -323 -35 -28 -71 -57 -80 -65
-28 -26 -305 -254 -341 -280 -18 -14 -97 -74 -174 -135 -78 -60 -193 -149
-256 -197 -242 -184 -318 -244 -425 -332 -482 -398 -704 -660 -787 -929 -53
-174 -14 -371 98 -496 54 -60 158 -116 253 -136 101 -21 104 -20 37 21 -89 53
-143 101 -190 168 -40 56 -80 148 -70 159 2 2 50 -12 107 -31 141 -47 298 -79
460 -93 381 -33 801 72 1139 284 47 30 92 59 100 65 153 125 204 170 259 229
245 261 405 572 481 938 20 97 23 139 23 350 0 272 -14 367 -85 586 -34 102
-103 270 -112 269 -2 -1 -28 -24 -58 -52z m38 -249 c27 -87 47 -298 38 -407
-5 -68 -27 -140 -45 -152 -17 -11 -71 -119 -117 -234 -54 -136 -115 -233 -204
-323 -74 -77 -94 -80 -132 -20 -72 115 -120 289 -138 502 -6 72 -13 149 -15
172 -4 41 -4 41 63 90 76 56 248 209 400 355 57 54 109 97 115 95 6 -2 22 -37
35 -78z m-731 -677 c25 -278 124 -541 231 -616 41 -28 91 -34 137 -16 41 16
115 76 163 133 24 29 56 67 71 85 38 44 113 190 145 280 14 40 35 89 46 110
l21 37 -6 -85 c-6 -104 -44 -272 -86 -388 -27 -74 -138 -306 -161 -337 -4 -5
-44 -59 -89 -120 -368 -498 -986 -760 -1606 -681 -264 34 -390 91 -429 193
-34 88 0 182 122 334 172 216 376 401 769 699 239 181 536 415 595 468 25 23
49 40 55 38 5 -1 15 -62 22 -134z"/>
</g>
</svg>
